<svg width="203" height="48" viewBox="0 0 203 48" fill="none" xmlns="http://www.w3.org/2000/svg">
<rect width="203" height="48" rx="12.973" fill="url(#paint0_linear_2247_7142)"/>
<path d="M21.9832 25.1C21.9832 24.1387 22.1978 23.28 22.6272 22.524C23.0658 21.7587 23.6585 21.166 24.4052 20.746C25.1612 20.3167 26.0058 20.102 26.9392 20.102C28.0312 20.102 28.9878 20.382 29.8092 20.942C30.6305 21.502 31.2045 22.2767 31.5312 23.266H29.2772C29.0532 22.7993 28.7358 22.4493 28.3252 22.216C27.9238 21.9827 27.4572 21.866 26.9252 21.866C26.3558 21.866 25.8472 22.0013 25.3992 22.272C24.9605 22.5333 24.6152 22.9067 24.3632 23.392C24.1205 23.8773 23.9992 24.4467 23.9992 25.1C23.9992 25.744 24.1205 26.3133 24.3632 26.808C24.6152 27.2933 24.9605 27.6713 25.3992 27.942C25.8472 28.2033 26.3558 28.334 26.9252 28.334C27.4572 28.334 27.9238 28.2173 28.3252 27.984C28.7358 27.7413 29.0532 27.3867 29.2772 26.92H31.5312C31.2045 27.9187 30.6305 28.698 29.8092 29.258C28.9972 29.8087 28.0405 30.084 26.9392 30.084C26.0058 30.084 25.1612 29.874 24.4052 29.454C23.6585 29.0247 23.0658 28.432 22.6272 27.676C22.1978 26.92 21.9832 26.0613 21.9832 25.1ZM37.5733 22.132C38.1613 22.132 38.6839 22.2627 39.1413 22.524C39.5986 22.776 39.9533 23.154 40.2053 23.658C40.4666 24.1527 40.5973 24.75 40.5973 25.45V30H38.6373V25.716C38.6373 25.1 38.4833 24.6287 38.1753 24.302C37.8673 23.966 37.4473 23.798 36.9153 23.798C36.3739 23.798 35.9446 23.966 35.6273 24.302C35.3193 24.6287 35.1653 25.1 35.1653 25.716V30H33.2053V19.64H35.1653V23.21C35.4173 22.874 35.7533 22.6127 36.1733 22.426C36.5933 22.23 37.0599 22.132 37.5733 22.132ZM49.6711 25.954C49.6711 26.234 49.6524 26.486 49.6151 26.71H43.9451C43.9918 27.27 44.1878 27.7087 44.5331 28.026C44.8784 28.3433 45.3031 28.502 45.8071 28.502C46.5351 28.502 47.0531 28.1893 47.3611 27.564H49.4751C49.2511 28.3107 48.8218 28.9267 48.1871 29.412C47.5524 29.888 46.7731 30.126 45.8491 30.126C45.1024 30.126 44.4304 29.9627 43.8331 29.636C43.2451 29.3 42.7831 28.8287 42.4471 28.222C42.1204 27.6153 41.9571 26.9153 41.9571 26.122C41.9571 25.3193 42.1204 24.6147 42.4471 24.008C42.7738 23.4013 43.2311 22.9347 43.8191 22.608C44.4071 22.2813 45.0838 22.118 45.8491 22.118C46.5864 22.118 47.2444 22.2767 47.8231 22.594C48.4111 22.9113 48.8638 23.364 49.1811 23.952C49.5078 24.5307 49.6711 25.198 49.6711 25.954ZM47.6411 25.394C47.6318 24.89 47.4498 24.4887 47.0951 24.19C46.7404 23.882 46.3064 23.728 45.7931 23.728C45.3078 23.728 44.8971 23.8773 44.5611 24.176C44.2344 24.4653 44.0338 24.8713 43.9591 25.394H47.6411ZM50.5977 26.122C50.5977 25.3193 50.7611 24.6193 51.0877 24.022C51.4144 23.4153 51.8671 22.9487 52.4457 22.622C53.0244 22.286 53.6871 22.118 54.4337 22.118C55.3951 22.118 56.1884 22.3607 56.8137 22.846C57.4484 23.322 57.8731 23.994 58.0877 24.862H55.9737C55.8617 24.526 55.6704 24.2647 55.3997 24.078C55.1384 23.882 54.8117 23.784 54.4197 23.784C53.8597 23.784 53.4164 23.9893 53.0897 24.4C52.7631 24.8013 52.5997 25.3753 52.5997 26.122C52.5997 26.8593 52.7631 27.4333 53.0897 27.844C53.4164 28.2453 53.8597 28.446 54.4197 28.446C55.2131 28.446 55.7311 28.0913 55.9737 27.382H58.0877C57.8731 28.222 57.4484 28.8893 56.8137 29.384C56.1791 29.8787 55.3857 30.126 54.4337 30.126C53.6871 30.126 53.0244 29.9627 52.4457 29.636C51.8671 29.3 51.4144 28.8333 51.0877 28.236C50.7611 27.6293 50.5977 26.9247 50.5977 26.122ZM64.1156 30L61.4836 26.696V30H59.5236V19.64H61.4836V25.534L64.0876 22.244H66.6356L63.2196 26.136L66.6636 30H64.1156ZM74.4513 20.228C75.478 20.228 76.3787 20.4287 77.1533 20.83C77.9373 21.2313 78.5393 21.8053 78.9593 22.552C79.3887 23.2893 79.6033 24.148 79.6033 25.128C79.6033 26.108 79.3887 26.9667 78.9593 27.704C78.5393 28.432 77.9373 28.9967 77.1533 29.398C76.3787 29.7993 75.478 30 74.4513 30H71.0353V20.228H74.4513ZM74.3813 28.334C75.408 28.334 76.2013 28.054 76.7613 27.494C77.3213 26.934 77.6013 26.1453 77.6013 25.128C77.6013 24.1107 77.3213 23.3173 76.7613 22.748C76.2013 22.1693 75.408 21.88 74.3813 21.88H72.9953V28.334H74.3813ZM80.5665 26.094C80.5665 25.31 80.7205 24.6147 81.0285 24.008C81.3458 23.4013 81.7705 22.9347 82.3025 22.608C82.8438 22.2813 83.4458 22.118 84.1085 22.118C84.6872 22.118 85.1912 22.2347 85.6205 22.468C86.0592 22.7013 86.4092 22.9953 86.6705 23.35V22.244H88.6445V30H86.6705V28.866C86.4185 29.23 86.0685 29.5333 85.6205 29.776C85.1818 30.0093 84.6732 30.126 84.0945 30.126C83.4412 30.126 82.8438 29.958 82.3025 29.622C81.7705 29.286 81.3458 28.8147 81.0285 28.208C80.7205 27.592 80.5665 26.8873 80.5665 26.094ZM86.6705 26.122C86.6705 25.646 86.5772 25.24 86.3905 24.904C86.2038 24.5587 85.9518 24.2973 85.6345 24.12C85.3172 23.9333 84.9765 23.84 84.6125 23.84C84.2485 23.84 83.9125 23.9287 83.6045 24.106C83.2965 24.2833 83.0445 24.5447 82.8485 24.89C82.6618 25.226 82.5685 25.6273 82.5685 26.094C82.5685 26.5607 82.6618 26.9713 82.8485 27.326C83.0445 27.6713 83.2965 27.9373 83.6045 28.124C83.9218 28.3107 84.2578 28.404 84.6125 28.404C84.9765 28.404 85.3172 28.3153 85.6345 28.138C85.9518 27.9513 86.2038 27.69 86.3905 27.354C86.5772 27.0087 86.6705 26.598 86.6705 26.122ZM91.5528 21.32C91.2074 21.32 90.9181 21.2127 90.6848 20.998C90.4608 20.774 90.3488 20.4987 90.3488 20.172C90.3488 19.8453 90.4608 19.5747 90.6848 19.36C90.9181 19.136 91.2074 19.024 91.5528 19.024C91.8981 19.024 92.1828 19.136 92.4068 19.36C92.6401 19.5747 92.7568 19.8453 92.7568 20.172C92.7568 20.4987 92.6401 20.774 92.4068 20.998C92.1828 21.2127 91.8981 21.32 91.5528 21.32ZM92.5188 22.244V30H90.5588V22.244H92.5188ZM96.4153 19.64V30H94.4553V19.64H96.4153ZM105.772 22.244L100.97 33.668H98.8837L100.564 29.804L97.4557 22.244H99.6537L101.656 27.662L103.686 22.244H105.772ZM109.688 25.1C109.688 24.1387 109.903 23.28 110.332 22.524C110.771 21.7587 111.364 21.166 112.11 20.746C112.866 20.3167 113.711 20.102 114.644 20.102C115.736 20.102 116.693 20.382 117.514 20.942C118.336 21.502 118.91 22.2767 119.236 23.266H116.982C116.758 22.7993 116.441 22.4493 116.03 22.216C115.629 21.9827 115.162 21.866 114.63 21.866C114.061 21.866 113.552 22.0013 113.104 22.272C112.666 22.5333 112.32 22.9067 112.068 23.392C111.826 23.8773 111.704 24.4467 111.704 25.1C111.704 25.744 111.826 26.3133 112.068 26.808C112.32 27.2933 112.666 27.6713 113.104 27.942C113.552 28.2033 114.061 28.334 114.63 28.334C115.162 28.334 115.629 28.2173 116.03 27.984C116.441 27.7413 116.758 27.3867 116.982 26.92H119.236C118.91 27.9187 118.336 28.698 117.514 29.258C116.702 29.8087 115.746 30.084 114.644 30.084C113.711 30.084 112.866 29.874 112.11 29.454C111.364 29.0247 110.771 28.432 110.332 27.676C109.903 26.92 109.688 26.0613 109.688 25.1ZM125.278 22.132C125.866 22.132 126.389 22.2627 126.846 22.524C127.304 22.776 127.658 23.154 127.91 23.658C128.172 24.1527 128.302 24.75 128.302 25.45V30H126.342V25.716C126.342 25.1 126.188 24.6287 125.88 24.302C125.572 23.966 125.152 23.798 124.62 23.798C124.079 23.798 123.65 23.966 123.332 24.302C123.024 24.6287 122.87 25.1 122.87 25.716V30H120.91V19.64H122.87V23.21C123.122 22.874 123.458 22.6127 123.878 22.426C124.298 22.23 124.765 22.132 125.278 22.132ZM129.662 26.094C129.662 25.31 129.816 24.6147 130.124 24.008C130.442 23.4013 130.866 22.9347 131.398 22.608C131.94 22.2813 132.542 22.118 133.204 22.118C133.783 22.118 134.287 22.2347 134.716 22.468C135.155 22.7013 135.505 22.9953 135.766 23.35V22.244H137.74V30H135.766V28.866C135.514 29.23 135.164 29.5333 134.716 29.776C134.278 30.0093 133.769 30.126 133.19 30.126C132.537 30.126 131.94 29.958 131.398 29.622C130.866 29.286 130.442 28.8147 130.124 28.208C129.816 27.592 129.662 26.8873 129.662 26.094ZM135.766 26.122C135.766 25.646 135.673 25.24 135.486 24.904C135.3 24.5587 135.048 24.2973 134.73 24.12C134.413 23.9333 134.072 23.84 133.708 23.84C133.344 23.84 133.008 23.9287 132.7 24.106C132.392 24.2833 132.14 24.5447 131.944 24.89C131.758 25.226 131.664 25.6273 131.664 26.094C131.664 26.5607 131.758 26.9713 131.944 27.326C132.14 27.6713 132.392 27.9373 132.7 28.124C133.018 28.3107 133.354 28.404 133.708 28.404C134.072 28.404 134.413 28.3153 134.73 28.138C135.048 27.9513 135.3 27.69 135.486 27.354C135.673 27.0087 135.766 26.598 135.766 26.122ZM141.614 19.64V30H139.654V19.64H141.614ZM145.511 19.64V30H143.551V19.64H145.511ZM154.657 25.954C154.657 26.234 154.639 26.486 154.601 26.71H148.931C148.978 27.27 149.174 27.7087 149.519 28.026C149.865 28.3433 150.289 28.502 150.793 28.502C151.521 28.502 152.039 28.1893 152.347 27.564H154.461C154.237 28.3107 153.808 28.9267 153.173 29.412C152.539 29.888 151.759 30.126 150.835 30.126C150.089 30.126 149.417 29.9627 148.819 29.636C148.231 29.3 147.769 28.8287 147.433 28.222C147.107 27.6153 146.943 26.9153 146.943 26.122C146.943 25.3193 147.107 24.6147 147.433 24.008C147.76 23.4013 148.217 22.9347 148.805 22.608C149.393 22.2813 150.07 22.118 150.835 22.118C151.573 22.118 152.231 22.2767 152.809 22.594C153.397 22.9113 153.85 23.364 154.167 23.952C154.494 24.5307 154.657 25.198 154.657 25.954ZM152.627 25.394C152.618 24.89 152.436 24.4887 152.081 24.19C151.727 23.882 151.293 23.728 150.779 23.728C150.294 23.728 149.883 23.8773 149.547 24.176C149.221 24.4653 149.02 24.8713 148.945 25.394H152.627ZM160.386 22.132C161.31 22.132 162.057 22.426 162.626 23.014C163.195 23.5927 163.48 24.4047 163.48 25.45V30H161.52V25.716C161.52 25.1 161.366 24.6287 161.058 24.302C160.75 23.966 160.33 23.798 159.798 23.798C159.257 23.798 158.827 23.966 158.51 24.302C158.202 24.6287 158.048 25.1 158.048 25.716V30H156.088V22.244H158.048V23.21C158.309 22.874 158.641 22.6127 159.042 22.426C159.453 22.23 159.901 22.132 160.386 22.132ZM168.382 22.118C168.961 22.118 169.469 22.2347 169.908 22.468C170.347 22.692 170.692 22.986 170.944 23.35V22.244H172.918V30.056C172.918 30.7747 172.773 31.414 172.484 31.974C172.195 32.5433 171.761 32.9913 171.182 33.318C170.603 33.654 169.903 33.822 169.082 33.822C167.981 33.822 167.075 33.5653 166.366 33.052C165.666 32.5387 165.269 31.8387 165.176 30.952H167.122C167.225 31.3067 167.444 31.5867 167.78 31.792C168.125 32.0067 168.541 32.114 169.026 32.114C169.595 32.114 170.057 31.9413 170.412 31.596C170.767 31.26 170.944 30.7467 170.944 30.056V28.852C170.692 29.216 170.342 29.5193 169.894 29.762C169.455 30.0047 168.951 30.126 168.382 30.126C167.729 30.126 167.131 29.958 166.59 29.622C166.049 29.286 165.619 28.8147 165.302 28.208C164.994 27.592 164.84 26.8873 164.84 26.094C164.84 25.31 164.994 24.6147 165.302 24.008C165.619 23.4013 166.044 22.9347 166.576 22.608C167.117 22.2813 167.719 22.118 168.382 22.118ZM170.944 26.122C170.944 25.646 170.851 25.24 170.664 24.904C170.477 24.5587 170.225 24.2973 169.908 24.12C169.591 23.9333 169.25 23.84 168.886 23.84C168.522 23.84 168.186 23.9287 167.878 24.106C167.57 24.2833 167.318 24.5447 167.122 24.89C166.935 25.226 166.842 25.6273 166.842 26.094C166.842 26.5607 166.935 26.9713 167.122 27.326C167.318 27.6713 167.57 27.9373 167.878 28.124C168.195 28.3107 168.531 28.404 168.886 28.404C169.25 28.404 169.591 28.3153 169.908 28.138C170.225 27.9513 170.477 27.69 170.664 27.354C170.851 27.0087 170.944 26.598 170.944 26.122ZM182.042 25.954C182.042 26.234 182.024 26.486 181.986 26.71L176.316 26.71C176.363 27.27 176.559 27.7087 176.904 28.026C177.25 28.3433 177.674 28.502 178.178 28.502C178.906 28.502 179.424 28.1893 179.732 27.564L181.846 27.564C181.622 28.3107 181.193 28.9267 180.558 29.412C179.924 29.888 179.144 30.126 178.22 30.126C177.474 30.126 176.802 29.9627 176.204 29.636C175.616 29.3 175.154 28.8287 174.818 28.222C174.492 27.6153 174.328 26.9153 174.328 26.122C174.328 25.3193 174.492 24.6147 174.818 24.008C175.145 23.4013 175.602 22.9347 176.19 22.608C176.778 22.2813 177.455 22.118 178.22 22.118C178.958 22.118 179.616 22.2767 180.194 22.594C180.782 22.9113 181.235 23.364 181.552 23.952C181.879 24.5307 182.042 25.198 182.042 25.954ZM180.012 25.394C180.003 24.89 179.821 24.4887 179.466 24.19C179.112 23.882 178.678 23.728 178.164 23.728C177.679 23.728 177.268 23.8773 176.932 24.176C176.606 24.4653 176.405 24.8713 176.33 25.394H180.012Z" fill="white"/>
<defs>
<linearGradient id="paint0_linear_2247_7142" x1="0" y1="24" x2="203" y2="24" gradientUnits="userSpaceOnUse">
<stop stop-color="#7466DD"/>
<stop offset="1" stop-color="#6D3AEE"/>
</linearGradient>
</defs>
</svg>
